<svg xmlns="http://www.w3.org/2000/svg" viewBox="0 0 44 44"><rect width="44" height="44" fill="#252727" rx="22"/><path fill="#fff" d="M19.42 24.47h-4.64l-.95 3.02a.22.22 0 0 1-.23.18h-2.35c-.13 0-.17-.08-.13-.23l4-11.8.13-.4c.05-.27.08-.55.08-.83-.01-.06.04-.13.1-.14h3.23c.08 0 .15.04.16.1l4.55 13.04c.04.14 0 .2-.13.2h-2.6c-.09.02-.18-.04-.2-.13l-1.02-3.07v.06Zm-3.92-2.54h3.17a38.87 38.87 0 0 1-.62-2.02l-.37-1.18-.33-1.14-.28-1h-.02a16 16 0 0 1-.43 1.66l-.57 1.89c-.16.65-.36 1.25-.55 1.79ZM30.7 23.32h-3.95c.05.4.18.8.4 1.14.22.34.53.61.9.77.5.21 1.05.33 1.6.32a7.32 7.32 0 0 0 2.4-.44c.06-.05.1-.02.1.1v1.96l-.02.15a.3.3 0 0 1-.09.1c-.4.17-.81.3-1.25.38-.58.11-1.17.16-1.77.15-.94 0-1.74-.15-2.39-.45a4.2 4.2 0 0 1-1.57-1.21c-.4-.5-.69-1.06-.86-1.68a6.68 6.68 0 0 1 .05-3.9c.2-.64.51-1.22.93-1.75.42-.5.93-.92 1.51-1.21a4.6 4.6 0 0 1 2.08-.4 4.4 4.4 0 0 1 1.94.4c.5.23.96.57 1.3 1.02a5.15 5.15 0 0 1 .98 3.02c.01.3 0 .57-.02.82l-.05.53c0 .1-.08.17-.17.17l-.41.02c-.2.03-.44.04-.72.04-.3 0-.59-.05-.91-.05Zm-3.95-1.86h2.63c.33 0 .57 0 .72-.02a.6.6 0 0 0 .28-.1v-.13a1.65 1.65 0 0 0-1.7-1.65 1.75 1.75 0 0 0-1.65.97c-.15.3-.24.6-.28.93Z"/></svg>