<svg width="1728" height="548" viewBox="0 0 1728 548" fill="none" xmlns="http://www.w3.org/2000/svg">
<g filter="url(#filter0_f_1250_3854)">
<ellipse cx="864" cy="240" rx="608" ry="160" fill="#040607"/>
<ellipse cx="864" cy="240" rx="608" ry="160" fill="url(#paint0_radial_1250_3854)" fill-opacity="0.4"/>
<ellipse cx="864" cy="240" rx="608" ry="160" fill="url(#paint1_radial_1250_3854)" fill-opacity="0.2"/>
<ellipse cx="864" cy="240" rx="608" ry="160" fill="url(#paint2_radial_1250_3854)" fill-opacity="0.1"/>
<ellipse cx="864" cy="240" rx="608" ry="160" fill="url(#paint3_linear_1250_3854)"/>
<path d="M1471.5 240C1471.5 261.818 1454.69 282.734 1423.96 301.855C1393.25 320.959 1348.78 338.182 1293.79 352.654C1183.82 381.594 1031.86 399.5 864 399.5C696.136 399.5 544.18 381.594 434.206 352.654C379.216 338.182 334.75 320.959 304.044 301.855C273.311 282.734 256.5 261.818 256.5 240C256.5 218.182 273.311 197.266 304.044 178.145C334.75 159.041 379.216 141.818 434.206 127.346C544.18 98.4059 696.136 80.5 864 80.5C1031.86 80.5 1183.82 98.4059 1293.79 127.346C1348.78 141.818 1393.25 159.041 1423.96 178.145C1454.69 197.266 1471.5 218.182 1471.5 240Z" stroke="url(#paint4_linear_1250_3854)"/>
<path d="M1471.5 240C1471.5 261.818 1454.69 282.734 1423.96 301.855C1393.25 320.959 1348.78 338.182 1293.79 352.654C1183.82 381.594 1031.86 399.5 864 399.5C696.136 399.5 544.18 381.594 434.206 352.654C379.216 338.182 334.75 320.959 304.044 301.855C273.311 282.734 256.5 261.818 256.5 240C256.5 218.182 273.311 197.266 304.044 178.145C334.75 159.041 379.216 141.818 434.206 127.346C544.18 98.4059 696.136 80.5 864 80.5C1031.86 80.5 1183.82 98.4059 1293.79 127.346C1348.78 141.818 1393.25 159.041 1423.96 178.145C1454.69 197.266 1471.5 218.182 1471.5 240Z" stroke="url(#paint5_radial_1250_3854)" stroke-opacity="0.8"/>
<path d="M1471.5 240C1471.5 261.818 1454.69 282.734 1423.96 301.855C1393.25 320.959 1348.78 338.182 1293.79 352.654C1183.82 381.594 1031.86 399.5 864 399.5C696.136 399.5 544.18 381.594 434.206 352.654C379.216 338.182 334.75 320.959 304.044 301.855C273.311 282.734 256.5 261.818 256.5 240C256.5 218.182 273.311 197.266 304.044 178.145C334.75 159.041 379.216 141.818 434.206 127.346C544.18 98.4059 696.136 80.5 864 80.5C1031.86 80.5 1183.82 98.4059 1293.79 127.346C1348.78 141.818 1393.25 159.041 1423.96 178.145C1454.69 197.266 1471.5 218.182 1471.5 240Z" stroke="url(#paint6_radial_1250_3854)" stroke-opacity="0.8"/>
</g>
<mask id="path-3-inside-1_1250_3854" fill="white">
<path d="M0 92H1728V548H0V92Z"/>
</mask>
<path d="M0 92H1728V548H0V92Z" fill="#040607"/>
<path d="M0 92H1728V548H0V92Z" fill="url(#paint7_radial_1250_3854)" fill-opacity="0.4"/>
<path d="M0 92H1728V548H0V92Z" fill="url(#paint8_radial_1250_3854)" fill-opacity="0.2"/>
<path d="M0 92H1728V548H0V92Z" fill="url(#paint9_radial_1250_3854)" fill-opacity="0.1"/>
<path d="M0 92H1728V548H0V92Z" fill="url(#paint10_linear_1250_3854)"/>
<path d="M0 93H1728V91H0V93Z" fill="url(#paint11_linear_1250_3854)" mask="url(#path-3-inside-1_1250_3854)"/>
<path d="M0 93H1728V91H0V93Z" fill="url(#paint12_radial_1250_3854)" fill-opacity="0.8" mask="url(#path-3-inside-1_1250_3854)"/>
<path d="M0 93H1728V91H0V93Z" fill="url(#paint13_radial_1250_3854)" fill-opacity="0.8" mask="url(#path-3-inside-1_1250_3854)"/>
<defs>
<filter id="filter0_f_1250_3854" x="176" y="0" width="1376" height="480" filterUnits="userSpaceOnUse" color-interpolation-filters="sRGB">
<feFlood flood-opacity="0" result="BackgroundImageFix"/>
<feBlend mode="normal" in="SourceGraphic" in2="BackgroundImageFix" result="shape"/>
<feGaussianBlur stdDeviation="40" result="effect1_foregroundBlur_1250_3854"/>
</filter>
<radialGradient id="paint0_radial_1250_3854" cx="0" cy="0" r="1" gradientUnits="userSpaceOnUse" gradientTransform="translate(864 80) rotate(90) scale(236.418 418.512)">
<stop stop-color="#0EC9BD"/>
<stop offset="1" stop-color="#0EC9BD" stop-opacity="0"/>
</radialGradient>
<radialGradient id="paint1_radial_1250_3854" cx="0" cy="0" r="1" gradientUnits="userSpaceOnUse" gradientTransform="translate(864 80) rotate(90) scale(88.5 713.874)">
<stop stop-color="#1CE9C2"/>
<stop offset="1" stop-color="#1CE9C2" stop-opacity="0"/>
</radialGradient>
<radialGradient id="paint2_radial_1250_3854" cx="0" cy="0" r="1" gradientUnits="userSpaceOnUse" gradientTransform="translate(864 80) rotate(90) scale(204.179 262.962)">
<stop stop-color="white"/>
<stop offset="1" stop-color="white" stop-opacity="0"/>
</radialGradient>
<linearGradient id="paint3_linear_1250_3854" x1="394.788" y1="201.67" x2="1352.97" y2="201.67" gradientUnits="userSpaceOnUse">
<stop stop-color="#040607"/>
<stop offset="0.5" stop-color="#040607" stop-opacity="0"/>
<stop offset="1" stop-color="#040607"/>
</linearGradient>
<linearGradient id="paint4_linear_1250_3854" x1="650.321" y1="80" x2="1086.82" y2="80" gradientUnits="userSpaceOnUse">
<stop stop-color="white" stop-opacity="0"/>
<stop offset="0.5" stop-color="white" stop-opacity="0.61"/>
<stop offset="1" stop-color="white" stop-opacity="0"/>
</linearGradient>
<radialGradient id="paint5_radial_1250_3854" cx="0" cy="0" r="1" gradientUnits="userSpaceOnUse" gradientTransform="translate(864 80) rotate(90) scale(40.5458 154.074)">
<stop stop-color="#27FB56"/>
<stop offset="1" stop-opacity="0"/>
</radialGradient>
<radialGradient id="paint6_radial_1250_3854" cx="0" cy="0" r="1" gradientUnits="userSpaceOnUse" gradientTransform="translate(854.16 80) rotate(90) scale(19.3407 51.8256)">
<stop stop-color="white"/>
<stop offset="1" stop-color="white" stop-opacity="0"/>
</radialGradient>
<radialGradient id="paint7_radial_1250_3854" cx="0" cy="0" r="1" gradientUnits="userSpaceOnUse" gradientTransform="translate(864 92) rotate(90) scale(336.896 463.173)">
<stop stop-color="#0EC9BD"/>
<stop offset="1" stop-color="#0EC9BD" stop-opacity="0"/>
</radialGradient>
<radialGradient id="paint8_radial_1250_3854" cx="0" cy="0" r="1" gradientUnits="userSpaceOnUse" gradientTransform="translate(864 92) rotate(90) scale(91.7011 173.653)">
<stop stop-color="#1CE9C2"/>
<stop offset="1" stop-color="#1CE9C2" stop-opacity="0"/>
</radialGradient>
<radialGradient id="paint9_radial_1250_3854" cx="0" cy="0" r="1" gradientUnits="userSpaceOnUse" gradientTransform="translate(864 92) rotate(90) scale(290.955 373.683)">
<stop stop-color="white"/>
<stop offset="1" stop-color="white" stop-opacity="0"/>
</radialGradient>
<linearGradient id="paint10_linear_1250_3854" x1="518.899" y1="265.38" x2="1223.58" y2="265.38" gradientUnits="userSpaceOnUse">
<stop stop-color="#040607"/>
<stop offset="0.5" stop-color="#040607" stop-opacity="0"/>
<stop offset="1" stop-color="#040607"/>
</linearGradient>
<linearGradient id="paint11_linear_1250_3854" x1="560.351" y1="92" x2="1180.63" y2="92" gradientUnits="userSpaceOnUse">
<stop stop-color="white" stop-opacity="0"/>
<stop offset="0.5" stop-color="white" stop-opacity="0.61"/>
<stop offset="1" stop-color="white" stop-opacity="0"/>
</linearGradient>
<radialGradient id="paint12_radial_1250_3854" cx="0" cy="0" r="1" gradientUnits="userSpaceOnUse" gradientTransform="translate(864 92) rotate(90) scale(57.7778 218.947)">
<stop stop-color="#1CE9C2"/>
<stop offset="1" stop-opacity="0"/>
</radialGradient>
<radialGradient id="paint13_radial_1250_3854" cx="0" cy="0" r="1" gradientUnits="userSpaceOnUse" gradientTransform="translate(850.016 92) rotate(90) scale(27.5604 73.6469)">
<stop stop-color="white"/>
<stop offset="1" stop-color="white" stop-opacity="0"/>
</radialGradient>
</defs>
</svg>
