<svg xmlns="http://www.w3.org/2000/svg" viewBox="0 0 44 44"><rect width="44" height="44" fill="#252727" rx="22"/><path fill="#fff" d="M33.93 22.14a7.26 7.26 0 0 0-1.07-2.86A8.03 8.03 0 0 0 31 17.24l-7.83-5.92-.02-.02c-.26-.2-.61-.3-1-.3-.37 0-.74.1-1.02.3-.3.22-.48.5-.5.8 0 .27.13.54.38.74l1.51 1.2 1.5 1.17h-9.6c-1.1 0-1.85.5-2 1.35-.07.37.05.78.32 1.1.28.33.7.51 1.16.51h4.73l-8.7 6.33-.04.03c-.49.36-.8.88-.88 1.4-.05.4.05.78.28 1.07.28.35.7.54 1.22.54.5 0 1-.19 1.43-.52l4.7-3.79c-.01.18-.04.46-.04.65.01.31.11.94.27 1.45.34 1.04.9 2 1.67 2.83a8.6 8.6 0 0 0 2.91 2.06c1.2.52 2.47.78 3.8.78h.02c1.34 0 2.62-.27 3.82-.8 1.13-.5 2.1-1.19 2.91-2.06a7.61 7.61 0 0 0 1.98-4.43c.04-.52.02-1.05-.05-1.57Zm-8.57 5c-2.95 0-5.33-2.1-5.33-4.69 0-2.59 2.38-4.69 5.33-4.69 2.94 0 5.32 2.1 5.32 4.69 0 2.59-2.38 4.69-5.32 4.69Zm3.07-5.1a2.6 2.6 0 0 1-.82 2.02c-.56.54-1.36.88-2.26.88-.9 0-1.7-.34-2.25-.88a2.6 2.6 0 0 1-.83-2.02c.05-.75.42-1.41.98-1.88.55-.46 1.3-.75 2.1-.75.81 0 1.55.29 2.1.75.56.47.94 1.13.98 1.88Z"/></svg>