<svg xmlns="http://www.w3.org/2000/svg" viewBox="0 0 44 44"><rect width="44" height="44" fill="#252727" rx="22"/><path stroke="#fff" stroke-width="2" d="M22 22.18a3.35 3.35 0 1 1 6.7 0 3.35 3.35 0 0 1-6.7 0ZM15.3 28.88a3.35 3.35 0 0 1 3.35-3.35H22v3.34a3.35 3.35 0 0 1-6.7 0Z"/><path fill="none" stroke="#fff" stroke-width="2" d="M22 12.13v6.7h3.35a3.35 3.35 0 0 0 0-6.7H22ZM15.3 15.48a3.35 3.35 0 0 0 3.35 3.35H22v-6.7h-3.35a3.35 3.35 0 0 0-3.35 3.35ZM15.3 22.18a3.35 3.35 0 0 0 3.35 3.35H22v-6.7h-3.35a3.35 3.35 0 0 0-3.35 3.35Z"/></svg>