<svg width="57" height="36" viewBox="0 0 57 36" fill="none" xmlns="http://www.w3.org/2000/svg">
<path d="M5.61573 1.0188L1.57269 28.1683H5.84861L6.97048 20.481L6.99168 20.2776L7.11869 19.3422L7.13982 20.6234L7.16102 21.0301L7.52091 28.1683H11.7756L10.6114 18.2236L14.3793 9.58054H10.3151L7.77493 16.19L7.66905 16.434L7.39384 17.3288L7.54205 16.3527L7.58438 16.129L9.76464 1.0188H5.61573ZM29.5143 9.53987L23.6297 28.1276H27.715L28.6464 24.5077H30.3611L29.9377 28.1276H33.9807L35.0815 9.53987H29.5143ZM15.6494 9.58054L12.7282 28.1683H16.4537L17.8085 19.6472L17.9778 18.4473L17.9567 19.3828L17.9778 19.6065L18.38 28.1683H22.4443L25.3654 9.58054H21.8939L20.6238 17.2678L20.4333 18.4473L20.4545 17.5119L20.4333 17.2881L20.1581 9.58054H15.6494ZM42.321 9.58054L38.0662 9.60088C37.134 15.1837 36.6835 18.7402 35.7801 23.4298C35.7572 23.5624 35.7259 23.7023 35.6954 23.8772C35.6344 24.2376 35.6158 24.2661 35.5472 24.7924C35.4871 25.2601 35.4659 25.6099 35.5472 26.0736C35.6251 26.5194 35.6861 26.774 35.9282 27.1514C36.1374 27.4711 36.3101 27.6387 36.6268 27.8632C36.9545 28.0959 37.189 28.1837 37.5794 28.331C37.9756 28.4806 38.6631 28.5587 39.2728 28.5953C40.0806 28.645 40.8985 28.6141 41.6224 28.514C42.4226 28.4042 43.0635 28.2024 43.5486 27.8836C44.066 27.5452 44.519 27.1514 44.7765 26.6227C44.9644 26.2387 45.1176 25.784 45.2209 25.1788C45.4385 23.9 45.2226 25.1845 45.4326 23.8976L47.7822 9.60088H43.591L41.1567 24.2636C41.1567 24.2636 41.1339 24.5402 41.0932 24.711C41.0483 24.9071 41.0542 25.0462 40.945 25.2195C40.879 25.3203 40.8375 25.3765 40.7333 25.4432C40.6157 25.5172 40.5352 25.5448 40.3947 25.5448C40.2364 25.5465 40.1288 25.4838 40.0136 25.3821C39.89 25.2723 39.8545 25.1747 39.8231 25.0161C39.7927 24.8721 39.8231 24.65 39.8231 24.65L39.9078 24.223L42.321 9.58054ZM49.4757 9.58054L45.4326 34.9811H49.7509L52.3545 19.3218H54.7677L55.2545 16.2306H52.7779L53.3283 12.5294H55.8684L56.2918 9.58054H49.4757ZM31.9275 11.6752L31.7158 13.0988L31.6523 13.4648L30.7421 21.3962H29.4509L31.5041 13.4038L31.5888 13.0581L31.9275 11.6752Z" fill="white"/>
</svg>
