<svg width="64" height="36" viewBox="0 0 64 36" fill="none" xmlns="http://www.w3.org/2000/svg">
<path fill-rule="evenodd" clip-rule="evenodd" d="M18.9697 2.00963C18.4598 2.15685 17.9918 2.28107 17.9297 2.28552C17.6034 2.30907 16.0268 3.9253 15.684 4.58759C15.1392 5.63962 15.0044 8.19311 15.4266 9.46373C15.808 10.6122 16.6285 11.6115 17.7101 12.2455C19.4139 13.2439 22.3825 13.0147 23.8951 11.7678C26.1132 9.9395 26.3796 5.74734 24.4196 3.52036C23.1718 2.10289 20.8633 1.46304 18.9697 2.00963ZM39.4083 1.92916C36.8667 2.56457 35.5087 4.39495 35.4926 7.20709C35.4822 9.00947 35.7546 10.0011 36.5441 11.0364C37.3933 12.1498 38.6518 12.7496 40.3146 12.8336C42.5553 12.9467 44.0809 12.2186 45.0146 10.5907C45.3216 10.0554 45.5734 9.51324 45.5745 9.38567C45.5757 9.22084 45.1763 9.15391 44.1904 9.15391C42.8412 9.15391 42.7971 9.16837 42.5197 9.70458C42.1576 10.4051 41.7171 10.6372 40.7499 10.6372C39.7244 10.6372 38.975 10.1642 38.6287 9.29872C38.1013 7.98081 37.9363 8.04144 42.0534 8.04144H45.7616V7.33873C45.7616 6.23201 45.253 4.56182 44.6482 3.68297C43.6856 2.28367 41.2504 1.4686 39.4083 1.92916ZM50.9546 2.14535C50.4967 2.3799 49.9334 2.85529 49.7031 3.20183L49.2844 3.83186V2.97006V2.10827H47.8939H46.5033V7.3925V12.6767H47.9866H49.4699V9.33339C49.4699 5.68931 49.6132 4.98308 50.4666 4.42387C51.1276 3.99094 51.9911 4.2075 52.3469 4.89575C52.5625 5.31237 52.6219 6.21236 52.6219 9.05972V12.6923L54.0588 12.6382L55.4957 12.584L55.5884 8.9685C55.6884 5.0717 55.7744 4.71701 56.7137 4.32802C56.9812 4.21714 57.4305 4.18432 57.7121 4.25497C58.5923 4.47579 58.7404 5.18147 58.7404 9.15576V12.6923L60.1774 12.6382L61.6143 12.584V8.50497C61.6143 4.61244 61.5947 4.38586 61.184 3.55225C60.1438 1.44023 57.4832 1.20958 55.8334 3.08854L55.2441 3.75973L54.8731 3.131C54.1435 1.89449 52.3335 1.4393 50.9546 2.14535ZM7.05399 7.34615L7.10331 12.584L11.0433 12.6341L14.9833 12.6841V11.4753V10.2664H12.4802H9.97719V6.18732V2.10827H8.49093H7.00486L7.05399 7.34615ZM26.6642 7.3925V12.6767H28.0548H29.4454V9.52473V6.37274H31.2958C34.4224 6.37274 35.1181 5.85803 35.3248 3.39225L35.4323 2.10827H33.9222H32.412V3.02884C32.412 4.15633 32.1621 4.33321 30.5701 4.33321H29.4454V3.22074V2.10827H28.0548H26.6642V7.3925ZM21.3715 4.22493C22.1686 4.55793 22.531 5.11453 22.7895 6.40166C23.076 7.82803 22.7552 9.32634 22.0019 10.0795C21.5248 10.5565 21.3047 10.6372 20.48 10.6372C18.9048 10.6372 18.2243 9.88202 18.0196 7.90702C17.7294 5.10693 19.3145 3.36555 21.3715 4.22493ZM41.4751 4.16782C42.0369 4.3638 42.4085 4.85329 42.6914 5.77015C42.8197 6.18621 42.8139 6.18732 40.6752 6.18732C38.3094 6.18732 38.2517 6.1521 38.8207 5.05168C39.0989 4.5138 39.9631 3.98501 40.5888 3.96962C40.752 3.96572 41.1508 4.05491 41.4751 4.16782ZM3.01591 16.6547C2.02396 17.6465 2.72092 19.3515 4.118 19.3515C5.5859 19.3515 6.33367 17.7188 5.34672 16.6681C4.74321 16.0258 3.65113 16.0193 3.01591 16.6547ZM11.2078 19.994C10.814 20.1344 10.2507 20.4801 9.95624 20.7622L9.42095 21.275V20.6841V20.0932H7.93544H6.44992L6.4985 27.0925L6.54707 34.0918L7.98401 34.1459L9.42095 34.2001V31.8652V29.5303L10.0235 29.9777C11.6807 31.2081 13.891 31.127 15.3806 29.7813C16.2836 28.9655 16.7223 28.138 17.0225 26.6836C17.9137 22.3654 14.7538 18.7299 11.2078 19.994ZM20.7911 19.9892C18.8323 20.6018 17.7945 21.9332 18.0335 23.527C18.259 25.0307 19.1751 25.6055 22.4624 26.3056C24.5416 26.7485 25.102 27.4201 24.1695 28.3524C23.8219 28.7002 23.5185 28.8075 22.8839 28.8075C21.6985 28.8075 21.1447 28.5391 20.7884 27.792L20.477 27.1388H19.1059H17.735L17.8561 27.7414C18.0535 28.7247 18.8858 29.7581 19.8967 30.2756C20.7075 30.6904 21.0565 30.7503 22.6779 30.7521C24.2528 30.754 24.6655 30.6887 25.4177 30.3183C26.6303 29.7211 27.265 28.8454 27.3616 27.6354C27.5206 25.6459 26.7718 24.9554 23.6055 24.1724C21.2485 23.5895 20.9165 23.4163 20.9165 22.7694C20.9165 21.5155 23.6698 21.3887 24.2294 22.6166C24.4163 23.0268 24.5355 23.0598 25.826 23.0598C27.3886 23.0598 27.4107 23.0333 26.8602 21.8205C26.0846 20.1123 23.1905 19.239 20.7911 19.9892ZM43.4304 20.0735C43.0149 20.2623 42.4962 20.6567 42.2774 20.9502L41.8797 21.4838L41.8739 20.7885L41.868 20.0932H40.4774H39.0868V25.2847V30.4762H40.46H41.8333L41.8969 26.9668C41.9555 23.7456 41.9928 23.4141 42.3504 22.9341C43.0932 21.9371 44.3731 21.8804 44.8405 22.8236C45.0213 23.1881 45.1164 24.3771 45.1676 26.9071L45.2395 30.4762H46.5956H47.9519L48.0155 26.9668C48.0741 23.7456 48.1113 23.4141 48.469 22.9341C49.2118 21.9371 50.4917 21.8804 50.9591 22.8236C51.1399 23.1881 51.235 24.3771 51.2861 26.9071L51.3581 30.4762H52.7316H54.1051L54.104 26.629C54.1035 24.5128 54.0156 22.4665 53.9086 22.0814C53.4608 20.4692 51.9974 19.5531 50.2764 19.8077C49.5301 19.9182 49.2318 20.0908 48.5233 20.8228L47.6693 21.705L47.3371 21.0877C46.9481 20.3654 45.7566 19.7205 44.8223 19.7264C44.4721 19.7287 43.8458 19.8848 43.4304 20.0735ZM2.74614 25.2847V30.4762H4.22943H5.71272V25.2847V20.0932H4.22943H2.74614V25.2847ZM28.3329 23.9592C28.3329 27.9417 28.4268 28.6069 29.1309 29.6172C29.5941 30.2816 30.7898 30.838 31.763 30.8419C33.0318 30.8471 33.8061 30.5217 34.616 29.643L35.3786 28.8159V29.646V30.4762H36.7692H38.1597V25.2847V20.0932H36.6765H35.1932L35.1928 23.3842C35.1926 26.9912 35.0222 27.7292 34.0807 28.1996C33.4051 28.5372 32.3328 28.4894 31.852 28.1002C31.2917 27.6465 31.1386 26.575 31.1252 23.0134L31.1141 20.0932H29.7235H28.3329V23.9592ZM12.9364 22.2506C13.8547 22.793 14.1489 23.5292 14.1489 25.2847C14.1489 26.5985 14.0792 26.9727 13.7301 27.5341C13.22 28.3546 12.4478 28.7039 11.4427 28.5691C10.056 28.3831 9.42095 27.3548 9.42095 25.2957C9.42095 23.1551 10.2635 21.9731 11.8028 21.9547C12.1439 21.9506 12.654 22.0838 12.9364 22.2506ZM55.6728 27.9648C54.6729 28.9646 55.3782 30.6617 56.7936 30.6617C57.6979 30.6617 58.3696 29.9899 58.3696 29.0857C58.3696 27.6702 56.6725 26.9649 55.6728 27.9648Z" fill="white"/>
</svg>
