<svg width="134" height="36" viewBox="0 0 134 36" fill="none" xmlns="http://www.w3.org/2000/svg">
<path fill-rule="evenodd" clip-rule="evenodd" d="M85.8788 5.76187C88.3905 5.76187 90.4719 7.77163 90.4719 10.2833C90.4738 10.8871 90.3563 11.4852 90.1262 12.0434C89.8961 12.6015 89.5578 13.1087 89.131 13.5356C88.7041 13.9626 88.197 14.3009 87.6389 14.5311C87.0807 14.7613 86.4826 14.8789 85.8788 14.8771C85.275 14.879 84.6768 14.7615 84.1185 14.5313C83.5603 14.3012 83.053 13.9629 82.626 13.5359C82.199 13.109 81.8607 12.6018 81.6304 12.0436C81.4002 11.4854 81.2826 10.8871 81.2844 10.2833C81.2844 7.77163 83.3658 5.76187 85.8788 5.76187ZM112.794 17.1746C114.733 17.1746 116.455 17.5333 117.82 18.3224C119.183 19.0405 120.187 20.1896 120.475 21.6245C120.69 22.3426 120.69 23.1316 120.475 23.9936C119.901 26.4337 115.236 27.0079 113.297 26.864C115.02 28.2287 117.459 27.5822 119.757 26.6478C120.905 26.2175 120.905 27.0795 120.618 27.7247C119.11 29.5919 115.81 30.7404 112.794 31.0268C108.559 31.0268 105.043 27.8686 105.043 23.9936C105.043 20.1889 107.626 17.3178 112.794 17.1746ZM113.512 19.1128C112.866 19.1128 112.364 20.2612 112.364 21.6245C112.364 23.0593 112.866 24.2085 113.512 24.2085C114.158 24.2085 114.661 23.06 114.661 21.6245C114.661 20.2612 114.159 19.1128 113.512 19.1128ZM13.5997 4.97284C18.0495 4.68573 25.5143 10.3563 25.1556 17.7488C24.8685 24.9989 19.8445 30.381 13.5997 30.31C7.35555 30.1661 1.68428 24.4963 1.97139 17.7488C2.11529 12.5809 4.55537 10.2124 8.07228 8.70526C9.14981 6.7671 9.14981 5.25925 13.5997 4.97284ZM52.6465 29.9499C51.7136 29.9499 50.5651 30.5242 48.627 30.5242C44.9661 30.5965 41.8802 27.5099 42.0951 23.7051C42.3106 19.8288 44.7506 17.1016 48.5547 17.03H50.8515V10.0685C50.1341 9.35108 48.5547 9.35108 50.9238 8.13034C52.3594 7.84324 53.651 7.77163 55.0866 7.91484C56.1634 8.13035 57.0247 9.20648 57.0247 9.9246V28.5867C57.1686 28.8015 57.3118 28.8731 57.5989 29.017C57.7428 29.0893 57.6712 29.3757 57.5273 29.5196C55.804 31.0991 53.7226 30.381 52.6465 29.9499ZM49.6315 18.8243C48.3399 18.6818 47.7649 20.8354 47.7649 23.6335C47.7649 26.433 48.3392 28.2989 49.5592 28.228C50.7792 28.1557 51.3542 26.2891 51.3542 23.6335C51.2826 21.0503 50.9954 18.9682 49.6315 18.8243ZM73.8912 29.0893V10.1401C73.4609 9.78139 72.5279 9.63749 72.8866 9.13557C72.9589 8.99167 73.1028 8.84847 73.3893 8.70457C73.5332 8.56136 73.7494 8.41745 74.0358 8.27425C75.3281 7.55613 76.6914 7.34132 78.1269 7.62773C79.2037 7.77163 80.0658 8.48905 80.1367 9.20648V28.586C80.209 28.8008 80.7109 28.8724 80.9987 29.0163C81.1426 29.0886 81.071 29.375 80.9264 29.5189C78.0539 31.9597 74.968 30.5965 73.8912 29.0893ZM82.649 29.0177V19.3269C82.7213 18.9682 82.2187 18.8966 81.9309 18.6818C81.787 18.3217 82.4335 17.6049 82.9355 17.461C84.1562 17.0307 85.4471 16.7436 86.8841 17.1023C87.9609 17.2462 88.8215 17.8204 88.8938 18.5379V28.5151C89.0377 28.7299 89.7545 28.5874 89.8268 28.9454C89.8991 29.0893 89.8268 29.3041 89.6829 29.448C86.8118 31.7449 83.0794 30.7404 82.649 29.0177ZM10.1543 17.1023V26.5053C10.8002 28.8731 16.0404 29.3034 17.476 26.5053V17.0307C15.1791 18.036 12.8099 18.1792 10.1543 17.1023ZM26.8067 30.0938H32.836V20.045C32.836 18.6102 34.7025 18.8966 34.7025 20.1173V28.659C34.7025 29.7358 36.7123 30.6688 38.6497 30.31C39.5827 30.1661 40.5163 30.1661 41.5208 29.3757C42.3099 28.3712 40.7311 28.9454 40.5156 27.9409V18.394C39.4395 15.9539 35.5631 16.672 32.7637 17.7481C30.8971 16.3849 27.6673 16.3849 26.2318 17.8914C25.7291 18.394 26.8776 18.3217 26.806 18.752L26.8067 30.0938ZM72.6002 17.3178H66.6425V27.2944C66.6425 28.7292 64.7044 28.4428 64.7044 27.2944L64.776 18.6818C64.776 17.7482 62.6946 16.7436 60.8281 17.1023C59.8951 17.3178 58.8906 17.3178 57.8854 18.1076C57.1672 18.9682 58.6751 18.394 58.8906 19.3985V28.9447C59.9667 31.4564 63.9146 30.7397 66.6418 29.7351C68.5084 31.0261 71.7375 31.0261 73.1014 29.5189C73.6041 29.0163 72.4549 29.0163 72.5988 28.586V17.3178H72.6002ZM90.5442 30.6688H96.5728V20.6199C96.5728 19.1851 98.5102 19.4715 98.5102 20.6199L98.4393 29.2339C98.4393 30.2384 100.521 31.1714 102.387 30.8836C103.32 30.6688 104.325 30.6688 105.33 29.879C106.047 28.9461 104.468 29.5203 104.253 28.5158V18.9682C103.176 16.5281 99.3 17.2462 96.5721 18.2515C94.6346 16.9591 91.4041 16.9591 89.9693 18.394C89.4667 18.8966 90.6158 18.8966 90.5435 19.256V30.6688H90.5442ZM124.208 8.20265H127.581C128.011 8.20265 128.299 8.27494 128.585 8.48975C128.945 8.70526 129.159 8.92007 129.303 9.20718C129.447 9.49429 129.519 9.78139 129.519 10.1401C129.519 10.4272 129.447 10.6427 129.376 10.8582C129.232 11.1453 129.015 11.2885 128.729 11.4324C128.513 11.5763 128.155 11.648 127.796 11.648L129.231 14.088H127.796L126.575 11.648H125.427V14.088H124.208V8.20265ZM125.427 9.13557V10.6427H127.222C127.581 10.6427 127.868 10.5704 128.011 10.4272C128.227 10.2833 128.299 10.1401 128.299 9.9246C128.299 9.7091 128.226 9.49359 128.011 9.35038C127.796 9.20648 127.581 9.13488 127.222 9.13488L125.427 9.13557ZM121.122 11.0021C121.122 11.9351 121.264 12.7248 121.624 13.4422C121.983 14.1596 122.413 14.8062 122.915 15.2365C123.489 15.7391 124.064 16.0978 124.71 16.3133C125.284 16.5288 125.93 16.6727 126.432 16.6727C127.366 16.6727 128.227 16.4572 129.016 16.0269C129.878 15.5959 130.595 15.0217 131.17 14.1603C131.672 13.3713 131.96 12.4377 132.032 11.3615C132.032 10.5718 131.888 9.85439 131.601 9.20787C131.314 8.49045 130.883 7.91623 130.381 7.34201C129.878 6.83939 129.304 6.40908 128.657 6.12197C128.011 5.83486 127.366 5.61936 126.72 5.61936C125.858 5.61936 125.069 5.83486 124.351 6.12197C123.634 6.40908 123.06 6.83939 122.557 7.34201C122.133 7.84661 121.771 8.40104 121.48 8.99306C121.264 9.63888 121.122 10.2131 121.122 10.7873V11.0021ZM122.126 11.1453V11.2885C122.126 11.7196 122.197 12.2222 122.413 12.7241C122.628 13.226 122.915 13.7286 123.273 14.1589C123.705 14.5899 124.135 14.8771 124.638 15.1642C125.212 15.4513 125.786 15.5952 126.431 15.5952H126.575C127.078 15.5952 127.58 15.4513 128.082 15.3081C128.585 15.0926 129.015 14.8055 129.447 14.4467C129.877 14.088 130.164 13.657 130.452 13.1551C130.738 12.5809 130.882 12.0067 130.954 11.3608V11.2169V11.0014C130.954 10.3556 130.738 9.63749 130.308 8.99167C129.877 8.27425 129.303 7.77163 128.657 7.34062C127.939 6.98191 127.293 6.7664 126.719 6.7664C125.571 6.7664 124.709 7.05351 124.064 7.48452C123.417 7.91484 122.915 8.48906 122.7 9.06328C122.413 9.70979 122.196 10.3556 122.126 11.1453Z" fill="white"/>
</svg>
