<svg width="129" height="36" viewBox="0 0 129 36" fill="none" xmlns="http://www.w3.org/2000/svg">
<path d="M4.81739 8.49734H6.56965C7.71933 8.49734 8.4604 8.30121 8.79073 7.91025C9.11976 7.51885 9.28535 6.63111 9.28535 5.24874C9.28535 3.99627 9.1103 3.1782 8.75976 2.79325C8.4075 2.40788 7.76234 2.21562 6.8247 2.21562H4.81739V8.49734ZM4.81739 15.1533H6.62384V15.5201H1.44922V15.1533H3.25825V2.21562H1.44922V1.84917H6.94212C8.14557 1.84917 9.12578 2.19584 9.87804 2.89132C10.6333 3.58594 11.0088 4.48186 11.0088 5.57648C11.0088 6.65992 10.6535 7.47842 9.94686 8.03197C9.23976 8.58595 8.19202 8.86337 6.80664 8.86337H4.81739V15.1533Z" fill="white"/>
<path d="M20.2501 7.65206V2.2155H18.4441V1.84905H23.6183V2.2155H21.7933V15.1531H23.6183V15.52H18.4441V15.1531H20.2501V8.01851H15.2677V15.1531H17.0737V15.52H11.8987V15.1531H13.7056V2.2155H11.8987V1.84905H17.0737V2.2155H15.2677V7.65206H20.2501Z" fill="white"/>
<path d="M28.0947 15.1535H29.9008V15.5204H24.7266V15.1535H26.533V2.21544H24.7266V1.84941H29.9008V2.21544H28.0947V15.1535Z" fill="white"/>
<path d="M36.1807 1.84941V2.21586H34.3734V15.1535H36.0078C37.2358 15.1535 38.1915 14.692 38.8719 13.7651C39.5545 12.8382 40.0117 11.381 40.2461 9.3892H40.4564V15.5204H31.0078V15.1535H32.8125V2.21586H31.0078V1.84941H36.1807Z" fill="white"/>
<path d="M45.1395 15.1535H46.9455V15.5204H41.7734V15.1535H43.5773V2.21544H41.7734V1.84941H46.9455V2.21544H45.1395V15.1535Z" fill="white"/>
<path d="M51.4234 8.49734H53.1748C54.3245 8.49734 55.0647 8.30121 55.3946 7.91025C55.7253 7.51885 55.8897 6.63111 55.8897 5.24874C55.8897 3.99627 55.7146 3.1782 55.3628 2.79325C55.0114 2.40788 54.3653 2.21562 53.429 2.21562H51.4234V8.49734ZM51.4234 15.1533H53.2281V15.5201H48.0548V15.1533H49.8626V2.21562H48.0548V1.84917H53.5464C54.7503 1.84917 55.7305 2.19584 56.4828 2.89132C57.2376 3.58594 57.6127 4.48186 57.6127 5.57648C57.6127 6.65992 57.2595 7.47842 56.5516 8.03197C55.8436 8.58595 54.7963 8.86337 53.4114 8.86337H51.4234V15.1533Z" fill="white"/>
<path d="M68.8428 15.52L65.4746 2.07399V13.1359C65.4746 13.8551 65.5817 14.3721 65.7985 14.6852C66.0114 14.9979 66.3576 15.1531 66.8368 15.1531H67.4269V15.52H63.1877V15.1531H63.506C64.0488 15.1531 64.4553 14.9979 64.7215 14.6852C64.9895 14.3721 65.1211 13.8994 65.1211 13.2671V3.48303C65.1211 3.02668 65.0092 2.70066 64.7847 2.50668C64.5606 2.31227 64.1869 2.2155 63.6583 2.2155H63.1877V1.84905H66.891L69.5693 12.5252L72.392 1.84905H75.8862V2.2155H74.0893V15.1531H75.8862V15.52H70.8123V15.1531H72.6183L72.6923 2.07399L69.1409 15.52H68.8428Z" fill="white"/>
<path d="M81.9847 15.3894C82.4634 15.3894 82.8991 15.2436 83.2922 14.9507C83.6849 14.6599 84.0239 14.2341 84.3082 13.6698C84.4978 13.3017 84.6295 12.8096 84.7086 12.192C84.7882 11.5748 84.8264 10.4092 84.8264 8.69435C84.8264 6.79757 84.7671 5.50768 84.6462 4.82553C84.5236 4.14295 84.3193 3.59241 84.0273 3.17305C83.7679 2.79757 83.4561 2.5051 83.097 2.29563C82.7361 2.08531 82.3662 1.97994 81.9847 1.97994C81.5912 1.97994 81.214 2.08531 80.851 2.29563C80.4867 2.5051 80.1778 2.79757 79.9236 3.17305C79.6286 3.60488 79.4196 4.15972 79.3021 4.83542C79.1847 5.51069 79.1262 6.79757 79.1262 8.69435V9.13521C79.1262 10.6135 79.1654 11.6462 79.2428 12.235C79.3215 12.8229 79.4574 13.3017 79.6432 13.6698C79.9275 14.2341 80.2677 14.6599 80.6643 14.9507C81.0613 15.2436 81.5004 15.3894 81.9847 15.3894ZM81.9847 1.63241C82.4996 1.63241 82.9985 1.76144 83.4828 2.01779C83.9684 2.27499 84.4041 2.64101 84.7912 3.11671C85.3826 3.85606 85.8316 4.71499 86.1361 5.69435C86.4441 6.67327 86.5968 7.74252 86.5968 8.90123C86.5968 9.91456 86.4742 10.8406 86.2342 11.6759C85.9907 12.512 85.6277 13.2668 85.1439 13.9429C84.7327 14.5128 84.2488 14.9576 83.6918 15.2771C83.1357 15.5959 82.5675 15.7567 81.9847 15.7567C81.3989 15.7567 80.8247 15.5959 80.2643 15.2771C79.7064 14.9576 79.22 14.5128 78.8071 13.9429C78.3236 13.2668 77.9615 12.512 77.7193 11.6759C77.4763 10.8406 77.3555 9.91456 77.3555 8.90123C77.3555 8.12488 77.4286 7.37822 77.5735 6.66166C77.7193 5.94467 77.9301 5.27628 78.2097 4.6565C78.6561 3.6866 79.2079 2.93908 79.86 2.41778C80.5133 1.89477 81.2221 1.63241 81.9847 1.63241Z" fill="white"/>
<path d="M93.2704 2.21563H91.3018V8.42209H93.017C94.0686 8.42209 94.771 8.20359 95.122 7.76445C95.4734 7.3266 95.6484 6.45607 95.6484 5.15499C95.6484 4.03413 95.4768 3.26467 95.1362 2.84445C94.7938 2.42553 94.1706 2.21563 93.2704 2.21563ZM87.9336 15.5202V15.1537H89.7396V2.21563H87.9336V1.84918H93.8884C94.996 1.84918 95.8523 2.13391 96.4553 2.70381C97.0609 3.27284 97.3654 4.07843 97.3654 5.11714C97.3654 6.12531 97.0588 6.93305 96.4463 7.53951C95.8364 8.14682 94.9757 8.49994 93.8695 8.60101C94.7224 8.65736 95.3878 8.85564 95.8665 9.19628C96.3448 9.53779 96.6678 10.0436 96.839 10.7137C96.8988 10.9335 96.9413 11.1705 96.9693 11.4264C96.996 11.6845 97.0102 12.004 97.0102 12.3842V12.9292C97.0102 13.2673 97.017 13.5137 97.0342 13.666C97.0467 13.8191 97.0695 13.955 97.1013 14.0746C97.2106 14.5313 97.3624 14.8548 97.5538 15.0483C97.7482 15.2389 98.0183 15.3331 98.3624 15.3331C98.4781 15.3331 98.6016 15.3184 98.74 15.2909C98.8755 15.263 99.011 15.2238 99.1439 15.1735V15.5202C98.9865 15.5963 98.8179 15.6535 98.6368 15.6943C98.454 15.7343 98.2609 15.7567 98.0553 15.7567C97.0553 15.7567 96.3577 15.4724 95.9564 14.9017C95.5585 14.3309 95.359 13.2604 95.359 11.6905C95.359 10.5068 95.2067 9.72402 94.8996 9.34295C94.5942 8.96058 94.0519 8.76962 93.2704 8.76962H91.3018V15.1537H93.1069V15.5202H87.9336Z" fill="white"/>
<path d="M104.853 2.21551H102.883V8.42197H104.597C105.654 8.42197 106.353 8.20347 106.706 7.76433C107.056 7.32648 107.232 6.45594 107.232 5.15487C107.232 4.03401 107.061 3.26454 106.718 2.84433C106.376 2.4254 105.755 2.21551 104.853 2.21551ZM99.5155 15.52V15.1536H101.322V2.21551H99.5155V1.84906H105.471C106.579 1.84906 107.436 2.13379 108.041 2.70368C108.644 3.27272 108.949 4.07831 108.949 5.11702C108.949 6.12519 108.64 6.93293 108.03 7.53938C107.42 8.1467 106.56 8.49981 105.453 8.60089C106.306 8.65723 106.971 8.85551 107.451 9.19616C107.927 9.53766 108.251 10.0435 108.42 10.7136C108.482 10.9334 108.525 11.1704 108.553 11.4263C108.579 11.6843 108.592 12.0039 108.592 12.3841V12.9291C108.592 13.2671 108.6 13.5136 108.616 13.6658C108.63 13.819 108.654 13.9549 108.684 14.0744C108.792 14.5312 108.945 14.8547 109.137 15.0482C109.332 15.2387 109.601 15.3329 109.946 15.3329C110.061 15.3329 110.186 15.3183 110.323 15.2908C110.458 15.2628 110.592 15.2237 110.725 15.1734V15.52C110.57 15.5962 110.399 15.6534 110.218 15.6942C110.037 15.7342 109.844 15.7566 109.638 15.7566C108.639 15.7566 107.94 15.4723 107.54 14.9015C107.142 14.3308 106.941 13.2602 106.941 11.6904C106.941 10.5067 106.788 9.7239 106.483 9.34283C106.176 8.96046 105.633 8.76949 104.853 8.76949H102.883V15.1536H104.69V15.52H99.5155Z" fill="white"/>
<path d="M114.465 15.1535H116.272V15.5204H111.098V15.1535H112.905V2.21544H111.098V1.84941H116.272V2.21544H114.465V15.1535Z" fill="white"/>
<path d="M117.699 15.616V9.79235H117.98C118.222 11.5704 118.712 12.9472 119.446 13.9244C120.181 14.9012 121.093 15.3893 122.186 15.3893C122.914 15.3893 123.526 15.136 124.014 14.6285C124.501 14.1214 124.744 13.4831 124.744 12.7136C124.744 12.081 124.564 11.5218 124.206 11.0367C123.851 10.5515 123.193 10.016 122.237 9.4259C121.941 9.2388 121.508 8.99192 120.94 8.68483C119.934 8.13386 119.252 7.68353 118.887 7.33257C118.616 7.05042 118.403 6.7188 118.248 6.3373C118.095 5.95493 118.018 5.55407 118.018 5.13515C118.018 4.10805 118.307 3.26848 118.887 2.61343C119.47 1.96009 120.213 1.63235 121.122 1.63235C121.715 1.63235 122.251 1.7773 122.73 2.06504C123.206 2.35321 123.676 2.81257 124.135 3.44482L125.162 1.63235H125.27V6.88138H124.99C124.697 5.30461 124.225 4.09601 123.568 3.25644C122.91 2.41859 122.114 1.99923 121.176 1.99923C120.461 1.99923 119.867 2.20955 119.397 2.63321C118.922 3.05558 118.689 3.58203 118.689 4.21472C118.689 5.02848 119.634 5.96525 121.529 7.02246C121.897 7.22891 122.186 7.38848 122.383 7.50203C123.599 8.19622 124.452 8.86719 124.944 9.51536C125.433 10.164 125.677 10.9171 125.677 11.7739C125.677 12.9188 125.339 13.8685 124.661 14.6242C123.983 15.379 123.139 15.7562 122.129 15.7562C121.511 15.7562 120.931 15.5859 120.386 15.2435C119.842 14.9029 119.342 14.4014 118.887 13.7369L117.906 15.616H117.699Z" fill="white"/>
<path d="M4.68935 33.7377H6.42501V34.0905H1.44922V33.7377H3.18653V21.2978H1.44922V20.9459H6.42501V21.2978H4.68935V33.7377Z" fill="white"/>
<path d="M9.56519 22.4081V31.2476C9.56519 32.0838 9.69628 32.7083 9.95847 33.121C10.2198 33.5316 10.6185 33.7376 11.154 33.7376H11.441V34.0903H7.36719V33.7376H7.67114C8.20751 33.7376 8.59956 33.542 8.85016 33.1466C9.09953 32.7529 9.22484 32.1318 9.22484 31.2832V22.0921C9.1078 21.7977 8.95066 21.5901 8.74885 21.4739C8.54786 21.356 8.23563 21.2977 7.81092 21.2977H7.36719V20.9458H10.4717L15.4822 30.9122V23.8075C15.4822 22.9709 15.3499 22.3436 15.0848 21.9251C14.8131 21.507 14.4136 21.2977 13.8781 21.2977H13.5898V20.9458H17.6823V21.2977H17.3593C16.83 21.2977 16.4396 21.4979 16.1873 21.8982C15.9338 22.2985 15.8073 22.9172 15.8073 23.7533V34.3174H15.5517L9.56519 22.4081Z" fill="white"/>
<path d="M20.4427 34.0903V33.7376H22.173V21.2981C22.1428 21.2981 22.0985 21.2948 22.0398 21.2886C21.9827 21.2828 21.9356 21.2791 21.9 21.2791C20.9063 21.2791 20.1516 21.6848 19.6346 22.4945C19.1235 23.3042 18.8055 24.5928 18.6876 26.3628H18.4883V20.9458H27.4593V26.3628H27.2509C27.0843 24.4311 26.7406 23.1041 26.2307 22.382C25.7187 21.6591 24.8767 21.2981 23.7081 21.2981H23.6725V33.7376H25.4106V34.0903H20.4427Z" fill="white"/>
<path d="M28.4805 34.0903V33.7376H30.2178V21.2981H28.4805V20.9458H37.3308V25.4145H37.1389C36.9247 23.8923 36.5785 22.8253 36.1021 22.2145C35.6232 21.6033 34.9016 21.2981 33.936 21.2981H31.719V26.8595H32.4001C33.0514 26.8595 33.5638 26.6027 33.9409 26.0874C34.3168 25.5729 34.5187 24.8521 34.546 23.9245H34.7213V29.9292H34.546C34.4893 28.9479 34.3015 28.2473 33.9839 27.8255C33.6668 27.4041 33.1759 27.1936 32.5043 27.1936H31.719V33.7376H33.9012C34.8838 33.7376 35.6534 33.3451 36.2105 32.5565C36.7663 31.7679 37.1327 30.5491 37.3146 28.8995H37.5152V34.0903H28.4805Z" fill="white"/>
<path d="M44.5657 21.2982H42.6729V27.2657H44.3221C45.3345 27.2657 46.0102 27.0556 46.3477 26.6334C46.6847 26.2124 46.8534 25.3753 46.8534 24.1244C46.8534 23.0467 46.688 22.3068 46.3588 21.9028C46.0313 21.5 45.4346 21.2982 44.5657 21.2982ZM39.4336 34.0904V33.7381H41.1717V21.2982H39.4336V20.9459H45.1608C46.2236 20.9459 47.0478 21.2196 47.6301 21.7676C48.2124 22.3147 48.5014 23.0893 48.5014 24.088C48.5014 25.0573 48.2086 25.834 47.6222 26.4171C47.0333 27.001 46.2075 27.3405 45.1418 27.4377C45.9622 27.4919 46.6024 27.6825 47.0623 28.01C47.5209 28.3384 47.8331 28.8247 47.9965 29.469C48.0552 29.6804 48.0986 29.9082 48.123 30.1543C48.1495 30.4024 48.1615 30.7097 48.1615 31.0753V31.5992C48.1615 31.9243 48.1698 32.1612 48.1851 32.3076C48.1971 32.4548 48.2206 32.5855 48.2496 32.7005C48.3534 33.1397 48.4998 33.4507 48.685 33.6368C48.8703 33.82 49.1329 33.9105 49.4633 33.9105C49.5721 33.9105 49.6933 33.8965 49.8256 33.87C49.9563 33.8431 50.0845 33.8055 50.2135 33.7571V34.0904C50.0617 34.1636 49.9005 34.2186 49.7251 34.2579C49.5489 34.2964 49.3628 34.3179 49.1652 34.3179C48.2045 34.3179 47.5325 34.0445 47.1483 33.4957C46.767 32.947 46.5731 31.9176 46.5731 30.4082C46.5731 29.2701 46.4267 28.5175 46.1339 28.1511C45.8394 27.7834 45.315 27.5998 44.5657 27.5998H42.6729V33.7381H44.4077V34.0904H39.4336Z" fill="white"/>
<path d="M52.6476 22.4081V31.2476C52.6476 32.0838 52.7767 32.7083 53.0413 33.121C53.3019 33.5316 53.6997 33.7376 54.2361 33.7376H54.5247V34.0903H50.4492V33.7376H50.7532C51.2895 33.7376 51.6816 33.542 51.9326 33.1466C52.1824 32.7529 52.3077 32.1318 52.3077 31.2832V22.0921C52.1907 21.7977 52.031 21.5901 51.8305 21.4739C51.6299 21.356 51.3193 21.2977 50.8921 21.2977H50.4492V20.9458H53.5558L58.5642 30.9122V23.8075C58.5642 22.9709 58.4307 22.3436 58.1648 21.9251C57.8959 21.507 57.4956 21.2977 56.9589 21.2977H56.6727V20.9458H60.766V21.2977H60.4409C59.9124 21.2977 59.5224 21.4979 59.2681 21.8982C59.0162 22.2985 58.8893 22.9172 58.8893 23.7533V34.3174H58.6345L52.6476 22.4081Z" fill="white"/>
<path d="M63.2187 29.5587H66.8682L65.0598 23.1847L63.2187 29.5587ZM62.679 31.3924C62.6323 31.5495 62.5967 31.7075 62.574 31.87C62.5483 32.0329 62.5363 32.1926 62.5363 32.3485C62.5363 32.7951 62.6525 33.1379 62.8783 33.379C63.1041 33.6172 63.4201 33.7376 63.8221 33.7376H64.1785V34.0903H60.3206V33.7376C60.8263 33.6726 61.2312 33.4572 61.5339 33.0945C61.837 32.7281 62.1306 32.0685 62.4156 31.1116L65.4179 20.7373H65.812L69.5989 33.7376H70.7423V34.0903H66.5601V33.7376H68.0621L66.9733 29.8937H63.1041L62.679 31.3924Z" fill="white"/>
<path d="M71.9826 34.0903V33.7376H73.7104V21.2981C73.6798 21.2981 73.638 21.2948 73.5814 21.2886C73.521 21.2828 73.4755 21.2791 73.4387 21.2791C72.4433 21.2791 71.6902 21.6848 71.1745 22.4945C70.6609 23.3042 70.3445 24.5928 70.2275 26.3628H70.0273V20.9458H79.0001V26.3628H78.7896C78.6213 24.4311 78.2805 23.1041 77.7681 22.382C77.2578 21.6591 76.4175 21.2981 75.2446 21.2981H75.2116V33.7376H76.948V34.0903H71.9826Z" fill="white"/>
<path d="M83.2568 33.7376H84.9941V34.0903H80.0195V33.7376H81.756V21.2977H80.0195V20.9458H84.9941V21.2977H83.2568V33.7376Z" fill="white"/>
<path d="M90.7308 33.9647C91.1878 33.9647 91.608 33.8245 91.9855 33.5429C92.3639 33.2633 92.6898 32.8539 92.9631 32.3113C93.1422 31.9573 93.2717 31.4843 93.3477 30.8904C93.4238 30.297 93.4619 29.1762 93.4619 27.5274C93.4619 25.7037 93.4036 24.4635 93.287 23.8076C93.1703 23.1513 92.9706 22.622 92.6939 22.2187C92.4433 21.8577 92.1447 21.5765 91.7986 21.3751C91.4525 21.1729 91.0943 21.0716 90.7308 21.0716C90.3499 21.0716 89.9877 21.1729 89.6382 21.3751C89.2892 21.5765 88.9927 21.8577 88.747 22.2187C88.4625 22.6339 88.2624 23.1674 88.1511 23.8171C88.0366 24.4664 87.9795 25.7037 87.9795 27.5274V27.9513C87.9795 29.3727 88.0167 30.3656 88.0941 30.9318C88.1689 31.4971 88.2971 31.9573 88.4778 32.3113C88.7512 32.8539 89.0787 33.2633 89.4604 33.5429C89.8413 33.8245 90.2643 33.9647 90.7308 33.9647ZM90.7308 20.7374C91.2234 20.7374 91.7047 20.8615 92.1696 21.108C92.6344 21.3553 93.0554 21.7072 93.4271 22.1646C93.9962 22.8755 94.4296 23.7013 94.7232 24.643C95.0176 25.5842 95.1636 26.6123 95.1636 27.7264C95.1636 28.7007 95.047 29.591 94.815 30.3941C94.5814 31.1981 94.2319 31.9239 93.7667 32.5739C93.3721 33.1219 92.9061 33.5495 92.3705 33.8568C91.8333 34.1632 91.2875 34.3179 90.7308 34.3179C90.1663 34.3179 89.6118 34.1632 89.0737 33.8568C88.5365 33.5495 88.0705 33.1219 87.6743 32.5739C87.2107 31.9239 86.8592 31.1981 86.6293 30.3941C86.3944 29.591 86.2773 28.7007 86.2773 27.7264C86.2773 26.9799 86.3476 26.262 86.4862 25.573C86.6293 24.8836 86.8307 24.241 87.0995 23.6451C87.5296 22.7125 88.0585 21.9938 88.6871 21.4926C89.3157 20.9897 89.996 20.7374 90.7308 20.7374Z" fill="white"/>
<path d="M98.5243 22.4081V31.2476C98.5243 32.0838 98.6541 32.7083 98.9147 33.121C99.1777 33.5316 99.578 33.7376 100.113 33.7376H100.401V34.0903H96.3242V33.7376H96.6315C97.1645 33.7376 97.5591 33.542 97.8076 33.1466C98.0574 32.7529 98.1835 32.1318 98.1835 31.2832V22.0921C98.0657 21.7977 97.9085 21.5901 97.7071 21.4739C97.5074 21.356 97.1935 21.2977 96.7696 21.2977H96.3242V20.9458H99.4316L104.44 30.9122V23.8075C104.44 22.9709 104.306 22.3436 104.039 21.9251C103.773 21.507 103.371 21.2977 102.835 21.2977H102.547V20.9458H106.642V21.2977H106.318C105.787 21.2977 105.396 21.4979 105.144 21.8982C104.89 22.2985 104.765 22.9172 104.765 23.7533V34.3174H104.512L98.5243 22.4081Z" fill="white"/>
<path d="M109.093 29.5587H112.741L110.932 23.1847L109.093 29.5587ZM108.55 31.3924C108.502 31.5495 108.469 31.7075 108.447 31.87C108.423 32.0329 108.412 32.1926 108.412 32.3485C108.412 32.7951 108.523 33.1379 108.752 33.379C108.978 33.6172 109.292 33.7376 109.695 33.7376H110.052V34.0903H106.195V33.7376C106.699 33.6726 107.106 33.4572 107.409 33.0945C107.71 32.7281 108.004 32.0685 108.289 31.1116L111.291 20.7373H111.683L115.473 33.7376H116.615V34.0903H112.437V33.7376H113.936L112.846 29.8937H108.978L108.55 31.3924Z" fill="white"/>
<path d="M121.568 20.9458V21.2981H119.831V33.7376H121.401C122.581 33.7376 123.501 33.2938 124.155 32.4026C124.809 31.5115 125.251 30.1104 125.475 28.1952H125.677V34.0903H116.594V33.7376H118.329V21.2981H116.594V20.9458H121.568Z" fill="white"/>
</svg>
